<?xml version="1.0" encoding="UTF-8" standalone="no"?>
<!DOCTYPE svg PUBLIC "-//W3C//DTD SVG 1.1//EN" "http://www.w3.org/Graphics/SVG/1.1/DTD/svg11.dtd">
<svg width="100%" height="100%" viewBox="0 0 1 1" version="1.1" xmlns="http://www.w3.org/2000/svg" xmlns:xlink="http://www.w3.org/1999/xlink" xml:space="preserve" xmlns:serif="http://www.serif.com/" style="fill-rule:evenodd;clip-rule:evenodd;stroke-linejoin:round;stroke-miterlimit:2;">
    <g transform="matrix(0.1,0,0,-0.1,0,0.511)">
        <path d="M1.027,4.988C0.572,4.921 0.192,4.531 0.126,4.064C0.09,3.831 0.092,-3.66 0.128,-3.866C0.164,-4.093 0.266,-4.29 0.432,-4.456C0.598,-4.622 0.794,-4.724 1.022,-4.76C1.246,-4.798 8.752,-4.798 8.979,-4.762C9.434,-4.688 9.801,-4.315 9.875,-3.853C9.908,-3.649 9.908,3.875 9.875,4.081C9.839,4.301 9.696,4.579 9.548,4.709C9.393,4.847 9.153,4.96 8.951,4.988C8.757,5.016 1.218,5.016 1.027,4.988ZM8.829,0.113L8.829,-3.716L1.172,-3.716L1.172,3.941L8.829,3.941L8.829,0.113L8.829,0.113Z" style="fill-rule:nonzero;"/>
        <path d="M2.295,0.649L2.295,-0.423L7.706,-0.423L7.706,0.649L2.295,0.649Z" style="fill-rule:nonzero;"/>
        <g transform="matrix(-1.07188e-15,-1,1,-1.07188e-15,4.8877,5.1131)">
            <path d="M2.295,0.649L2.295,-0.423L7.706,-0.423L7.706,0.649L2.295,0.649Z" style="fill-rule:nonzero;"/>
        </g>
    </g>
</svg>
